nColumns=19
nRows=109
DataType=double
version=3
OpenSimVersion=4.1
endheader
time	ground_force_calcn_r_vx	ground_force_calcn_r_vy	ground_force_calcn_r_vz	ground_force_calcn_r_px	ground_force_calcn_r_py	ground_force_calcn_r_pz	ground_force_calcn_r_mx	ground_force_calcn_r_my	ground_force_calcn_r_mz	ground_force_calcn_l_vx	ground_force_calcn_l_vy	ground_force_calcn_l_vz	ground_force_calcn_l_px	ground_force_calcn_l_py	ground_force_calcn_l_pz	ground_force_calcn_l_mx	ground_force_calcn_l_my	ground_force_calcn_l_mz
0.83	-11.1045	76.848	-6.59076	1.26323	0	-0.2884	-0.328411	2.27274	-0.194919	0	0	0	0	0	0	0	0	0
0.84	-6.82494	191.343	-9.54727	1.26881	0	-0.288848	-0.122217	3.42645	-0.170966	0	0	0	0	0	0	0	0	0
0.85	6.0007	376.515	-10.6355	1.26706	0	-0.289459	0.0648361	4.06815	-0.114914	0	0	0	0	0	0	0	0	0
0.86	4.28786	603.827	-9.10474	1.2645	0	-0.290167	0.0282109	3.97272	-0.0599023	0	0	0	0	0	0	0	0	0
0.87	-24.6447	815.581	-6.05498	1.26386	0	-0.290659	-0.0936575	3.09946	-0.0230108	0	0	0	0	0	0	0	0	0
0.88	-68.3399	968.375	-3.47755	1.26349	0	-0.291407	-0.116954	1.65724	-0.00595133	0	0	0	0	0	0	0	0	0
0.89	-112.67	1076.33	-2.72634	1.26148	0	-0.292198	-0.00349547	0.0333919	-8.45816e-05	0	0	0	0	0	0	0	0	0
0.9	-143.923	1179.69	-4.25546	1.2573	0	-0.292288	0.169508	-1.3894	0.00501194	0	0	0	0	0	0	0	0	0
0.91	-151.301	1290.43	-7.95468	1.24973	0	-0.29198	0.279189	-2.38117	0.0146784	0	0	0	0	0	0	0	0	0
0.92	-142.373	1394.62	-12.8562	1.23914	0	-0.291665	0.295663	-2.89618	0.0266982	0	0	0	0	0	0	0	0	0
0.93	-128.919	1480.26	-17.5832	1.22738	0	-0.291268	0.265732	-3.05116	0.036243	0	0	0	0	0	0	0	0	0
0.94	-114.773	1545.92	-21.1218	1.21527	0	-0.290884	0.226984	-3.05734	0.0417723	0	0	0	0	0	0	0	0	0
0.95	-98.3485	1594.06	-22.6691	1.20246	0	-0.290703	0.192336	-3.11744	0.0443329	0	0	0	0	0	0	0	0	0
0.96	-79.298	1626.39	-21.8769	1.1889	0	-0.290641	0.163329	-3.34985	0.0450594	0	0	0	0	0	0	0	0	0
0.97	-59.5521	1641.76	-19.4805	1.17508	0	-0.290559	0.136763	-3.77035	0.0447376	0	0	0	0	0	0	0	0	0
0.98	-41.699	1636.32	-16.4447	1.16148	0	-0.290537	0.110164	-4.32297	0.0434449	0	0	0	0	0	0	0	0	0
0.99	-25.6399	1608.34	-12.6725	1.14806	0	-0.290581	0.0785254	-4.92574	0.038811	0	0	0	0	0	0	0	0	0
1	-9.17315	1559.67	-7.76163	1.13439	0	-0.290599	0.0323355	-5.49787	0.0273599	0	0	0	0	0	0	0	0	0
1.01	8.77801	1492.5	-2.33693	1.12035	0	-0.290644	-0.0350843	-5.96529	0.00934033	0	0	0	0	0	0	0	0	0
1.02	28.2707	1409.03	2.58437	1.106	0	-0.290755	-0.125631	-6.26154	-0.0114846	0	0	0	0	0	0	0	0	0
1.03	48.6524	1311.48	6.69049	1.09115	0	-0.29094	-0.234868	-6.33111	-0.0322981	0	0	0	0	0	0	0	0	0
1.04	67.7493	1201.92	10.1163	1.07587	0	-0.291246	-0.345786	-6.13451	-0.0516328	0	0	0	0	0	0	0	0	0
1.05	83.474	1082.98	12.838	1.06055	0	-0.291677	-0.435864	-5.65484	-0.0670346	0	0	0	0	0	0	0	0	0
1.06	94.7923	958.334	14.6776	1.04528	0	-0.292187	-0.485334	-4.90664	-0.0751492	0	0	0	0	0	0	0	0	0
1.07	100.849	832.709	15.6054	1.0299	0	-0.29263	-0.477727	-3.94459	-0.0739235	0	0	0	0	0	0	0	0	0
1.08	101.834	711.757	15.8078	1.01455	0	-0.292798	-0.409405	-2.86148	-0.0635522	0	0	0	0	0	0	0	0	0
1.09	97.8084	600.111	15.6092	0.999585	0	-0.29264	-0.289237	-1.77464	-0.0461593	0	0	0	0	0	0	0	0	0
1.1	90.0391	499.453	15.3914	0.985089	0	-0.292175	-0.144184	-0.799796	-0.0246469	0	0	0	0	0	0	0	0	0
1.11	80.7995	409.102	15.4749	0.970792	0	-0.291419	-0.00560524	-0.0283803	-0.00107352	0	0	0	0	0	0	0	0	0
1.12	71.4346	328.643	16.1108	0.956087	0	-0.290288	0.105766	0.486586	0.0238535	0	0	0	0	0	0	0	0	0
1.13	62.6509	258.738	17.295	0.940854	0	-0.288515	0.178755	0.73823	0.0493459	0	0	0	0	0	0	0	0	0
1.14	54.5362	198.98	18.5474	0.925869	0	-0.285946	0.208669	0.761347	0.070967	0	0	0	0	0	0	0	0	0
1.15	46.947	148.19	19.2533	0.910849	0	-0.282935	0.195682	0.617678	0.0802509	0	0	0	0	0	0	0	0	0
1.16	38.7353	106.312	19.2703	0.895439	0	-0.279885	0.140063	0.384414	0.0696793	0	0	0	0	0	0	0	0	0
1.17	29.5401	74.0423	18.7725	0.879872	0	-0.276057	0.0558071	0.13988	0.0354648	0	0	0	0	0	0	0	0	0
1.18	19.8924	50.5918	17.538	0.864979	0	-0.270737	-0.0201163	-0.0511613	-0.0177354	0	0	0	0	0	0	0	0	0
1.19	0	0	0	0	0	0	0	0	0	0	0	0	0	0	0	0	0	0
1.2	0	0	0	0	0	0	0	0	0	0	0	0	0	0	0	0	0	0
1.21	0	0	0	0	0	0	0	0	0	0	0	0	0	0	0	0	0	0
1.22	0	0	0	0	0	0	0	0	0	0	0	0	0	0	0	0	0	0
1.23	0	0	0	0	0	0	0	0	0	-14.892	68.9999	-6.94419	1.22277	0	-0.318699	-0.307639	1.4254	-0.143453
1.24	0	0	0	0	0	0	0	0	0	-14.8839	184.305	-13.6583	1.2371	0	-0.314267	-0.193612	2.39747	-0.17767
1.25	0	0	0	0	0	0	0	0	0	-1.73529	398.279	-18.658	1.23451	0	-0.310237	-0.014545	3.33834	-0.15639
1.26	0	0	0	0	0	0	0	0	0	6.24002	677.976	-22.1772	1.2308	0	-0.308426	0.0374204	4.06571	-0.132993
1.27	0	0	0	0	0	0	0	0	0	-9.02256	924.131	-24.7712	1.22868	0	-0.307907	-0.0428372	4.38757	-0.117608
1.28	0	0	0	0	0	0	0	0	0	-38.6528	1064.97	-25.9768	1.22616	0	-0.308945	-0.150657	4.15091	-0.10125
1.29	0	0	0	0	0	0	0	0	0	-70.8737	1130.23	-22.7682	1.22149	0	-0.311724	-0.211508	3.37294	-0.0679471
1.3	0	0	0	0	0	0	0	0	0	-98.6381	1191.09	-12.733	1.21545	0	-0.314068	-0.191392	2.31113	-0.0247064
1.31	0	0	0	0	0	0	0	0	0	-112.497	1270.54	-0.635048	1.20804	0	-0.315248	-0.124271	1.40352	-0.000701515
1.32	0	0	0	0	0	0	0	0	0	-108.505	1351.71	6.19963	1.19834	0	-0.316809	-0.0860597	1.0721	0.00491718
1.33	0	0	0	0	0	0	0	0	0	-92.7731	1427.53	8.01958	1.18672	0	-0.318251	-0.0993487	1.52871	0.008588
1.34	0	0	0	0	0	0	0	0	0	-75.1215	1499.95	8.82525	1.17421	0	-0.31867	-0.135791	2.71134	0.0159527
1.35	0	0	0	0	0	0	0	0	0	-57.0307	1559.93	8.65295	1.16135	0	-0.318951	-0.159519	4.36324	0.0242029
1.36	0	0	0	0	0	0	0	0	0	-36.8965	1598.27	6.81426	1.14815	0	-0.319401	-0.142299	6.16407	0.0262807
1.37	0	0	0	0	0	0	0	0	0	-15.5971	1615.11	4.51809	1.13455	0	-0.319377	-0.0757122	7.84013	0.0219319
1.38	0	0	0	0	0	0	0	0	0	6.57974	1608.68	1.68344	1.12078	0	-0.31907	0.0377406	9.22718	0.00965601
1.39	0	0	0	0	0	0	0	0	0	27.5234	1575.24	-2.21787	1.10736	0	-0.318794	0.179466	10.2713	-0.0144616
1.4	0	0	0	0	0	0	0	0	0	44.8462	1516.45	-6.23984	1.09456	0	-0.318131	0.325008	10.99	-0.0452211
1.41	0	0	0	0	0	0	0	0	0	59.9744	1436.2	-10.2386	1.08202	0	-0.317081	0.477036	11.4235	-0.0814375
1.42	0	0	0	0	0	0	0	0	0	75.4131	1339.1	-14.8403	1.06915	0	-0.316012	0.653044	11.596	-0.128511
1.43	0	0	0	0	0	0	0	0	0	90.7606	1231.33	-19.2165	1.05564	0	-0.314655	0.847847	11.5025	-0.179512
1.44	0	0	0	0	0	0	0	0	0	103.709	1116.34	-22.7094	1.04173	0	-0.312827	1.03365	11.1264	-0.22634
1.45	0	0	0	0	0	0	0	0	0	113.144	994.804	-26.1913	1.02766	0	-0.311077	1.18966	10.4599	-0.27539
1.46	0	0	0	0	0	0	0	0	0	118.142	869.865	-29.5216	1.01339	0	-0.309661	1.29351	9.52396	-0.323225
1.47	0	0	0	0	0	0	0	0	0	117.434	746.482	-31.3023	0.99907	0	-0.308117	1.31875	8.38282	-0.351518
1.48	0	0	0	0	0	0	0	0	0	111.548	627.382	-31.704	0.985294	0	-0.306608	1.26854	7.13469	-0.360543
1.49	0	0	0	0	0	0	0	0	0	101.829	514.929	-31.6747	0.972004	0	-0.305852	1.16443	5.8883	-0.362205
1.5	0	0	0	0	0	0	0	0	0	89.1485	413.262	-30.5791	0.958837	0	-0.305253	1.02229	4.73897	-0.350657
1.51	0	0	0	0	0	0	0	0	0	75.1092	324.108	-27.7739	0.945617	0	-0.303932	0.866301	3.73822	-0.32034
1.52	0	0	0	0	0	0	0	0	0	61.825	245.805	-24.0803	0.931807	0	-0.302935	0.724423	2.88018	-0.282156
1.53	0	0	0	0	0	0	0	0	0	49.6828	178.317	-19.9491	0.916726	0	-0.303052	0.591739	2.12381	-0.237601
1.54	0	0	0	0	0	0	0	0	0	37.9586	123.047	-15.0253	0.901111	0	-0.302527	0.437264	1.41744	-0.173084
1.55	0	0	0	0	0	0	0	0	0	26.7723	79.6449	-9.983	0.885557	0	-0.30035	0.239652	0.712939	-0.0893625
1.56	0	0	0	0	0	0	0	0	0	16.5693	46.7061	-6.14042	0.869227	0	-0.300153	-0.00210533	-0.00593454	0.000780211
1.57	0	0	0	0	0	0	0	0	0	0	0	0	0	0	0	0	0	0
1.58	0	0	0	0	0	0	0	0	0	0	0	0	0	0	0	0	0	0
1.59	0	0	0	0	0	0	0	0	0	0	0	0	0	0	0	0	0	0
1.6	0	0	0	0	0	0	0	0	0	0	0	0	0	0	0	0	0	0
1.61	0	0	0	0	0	0	0	0	0	0	0	0	0	0	0	0	0	0
1.62	-12.2543	71.8324	-6.13612	1.28954	0	-0.278226	-0.202495	1.18698	-0.101396	0	0	0	0	0	0	0	0	0
1.63	-8.56229	181.814	-11.1092	1.2892	0	-0.280652	-0.152688	3.24222	-0.198105	0	0	0	0	0	0	0	0	0
1.64	5.02405	357.416	-15.8004	1.28463	0	-0.281956	0.0720981	5.12912	-0.226745	0	0	0	0	0	0	0	0	0
1.65	4.44027	572.078	-18.1287	1.28218	0	-0.283898	0.048945	6.306	-0.199832	0	0	0	0	0	0	0	0	0
1.66	-28.2596	780.719	-16.8729	1.28338	0	-0.286225	-0.231011	6.38208	-0.137929	0	0	0	0	0	0	0	0	0
1.67	-80.9921	944.662	-12.1554	1.28512	0	-0.288703	-0.452989	5.28349	-0.0679853	0	0	0	0	0	0	0	0	0
1.68	-132.035	1066.41	-6.01208	1.28402	0	-0.291015	-0.413047	3.33608	-0.0188077	0	0	0	0	0	0	0	0	0
1.69	-168.332	1185.71	-1.39171	1.2795	0	-0.292804	-0.150495	1.06007	-0.00124424	0	0	0	0	0	0	0	0	0
1.7	-181.552	1322.98	1.12474	1.27158	0	-0.294037	0.146483	-1.06743	-0.000907483	0	0	0	0	0	0	0	0	0
1.71	-177.229	1461.58	3.06678	1.26079	0	-0.294738	0.328788	-2.71146	-0.00568935	0	0	0	0	0	0	0	0	0
1.72	-164.88	1576.48	4.36283	1.24859	0	-0.29519	0.386558	-3.69603	-0.0102285	0	0	0	0	0	0	0	0	0
1.73	-147.494	1659.43	3.95107	1.23573	0	-0.295683	0.357555	-4.02279	-0.00957819	0	0	0	0	0	0	0	0	0
1.74	-126.958	1713.86	2.66757	1.22222	0	-0.296103	0.284171	-3.83614	-0.00597083	0	0	0	0	0	0	0	0	0
1.75	-105.267	1742.23	1.70651	1.20834	0	-0.296376	0.202871	-3.35765	-0.00328882	0	0	0	0	0	0	0	0	0
1.76	-83.8691	1743.93	0.758734	1.19457	0	-0.29666	0.135778	-2.82329	-0.00122833	0	0	0	0	0	0	0	0	0
1.77	-63.5789	1718.97	-0.0903548	1.18108	0	-0.296953	0.0901956	-2.43859	0.000128181	0	0	0	0	0	0	0	0	0
1.78	-44.2188	1669.75	0.32318	1.16768	0	-0.297232	0.0620549	-2.34325	-0.000453538	0	0	0	0	0	0	0	0	0
1.79	-25.432	1598.4	2.69047	1.15428	0	-0.297728	0.0410511	-2.58006	-0.00434282	0	0	0	0	0	0	0	0	0
1.8	-7.15611	1507.72	6.78495	1.14093	0	-0.298467	0.0146345	-3.08333	-0.0138754	0	0	0	0	0	0	0	0	0
1.81	11.3373	1401.88	11.7091	1.12747	0	-0.299325	-0.029923	-3.70002	-0.0309042	0	0	0	0	0	0	0	0	0
1.82	30.9811	1284	16.4164	1.1134	0	-0.300421	-0.102283	-4.23907	-0.0541982	0	0	0	0	0	0	0	0	0
1.83	50.0366	1156.88	20.5647	1.0985	0	-0.301713	-0.195877	-4.52883	-0.0805045	0	0	0	0	0	0	0	0	0
1.84	65.5262	1023.77	24.1773	1.083	0	-0.302924	-0.285493	-4.4605	-0.105339	0	0	0	0	0	0	0	0	0
1.85	75.497	887.433	26.7887	1.06753	0	-0.304107	-0.340966	-4.0079	-0.120985	0	0	0	0	0	0	0	0	0
1.86	79.2943	751.495	28.0308	1.05248	0	-0.305465	-0.340318	-3.2253	-0.120304	0	0	0	0	0	0	0	0	0
1.87	77.0308	621.118	28.2604	1.03806	0	-0.306729	-0.276096	-2.22623	-0.101292	0	0	0	0	0	0	0	0	0
1.88	70.3757	500.257	27.6825	1.02468	0	-0.307574	-0.161573	-1.14852	-0.0635553	0	0	0	0	0	0	0	0	0
1.89	62.8654	391.375	25.9735	1.01198	0	-0.308206	-0.0199721	-0.124338	-0.00825168	0	0	0	0	0	0	0	0	0
1.9	56.272	297.599	23.2199	0.998714	0	-0.30843	0.138666	0.733343	0.0572185	0	0	0	0	0	0	0	0	0
1.91	50.4502	220.9	19.9302	0.984425	0	-0.307022	0.306947	1.34399	0.121258	0	0	0	0	0	0	0	0	0
